<?xml version="1.0" standalone="no"?>
<!DOCTYPE svg PUBLIC "-//W3C//DTD SVG 20010904//EN"
 "http://www.w3.org/TR/2001/REC-SVG-20010904/DTD/svg10.dtd">
<svg version="1.0" xmlns="http://www.w3.org/2000/svg"
 width="800.000000pt" height="800.000000pt" viewBox="0 0 800.000000 800.000000"
 preserveAspectRatio="xMidYMid meet">
<metadata>
Created by potrace 1.11, written by Peter Selinger 2001-2013
</metadata>
<g transform="translate(0.000000,800.000000) scale(0.100000,-0.100000)"
fill="#000000" stroke="none">
<path d="M1245 7839 c-93 -17 -225 -51 -231 -60 -3 -5 -13 -9 -22 -9 -32 0
-240 -112 -323 -175 -92 -68 -249 -223 -300 -295 -18 -25 -35 -47 -39 -50 -10
-8 -75 -119 -108 -185 -34 -68 -88 -223 -97 -275 -3 -19 -7 -46 -10 -60 -14
-77 -16 -139 -17 -399 0 -294 2 -332 28 -451 3 -14 7 -35 10 -47 25 -120 167
-400 259 -512 34 -42 159 -185 180 -207 11 -11 49 -54 85 -94 36 -40 70 -78
75 -84 6 -6 44 -49 85 -96 41 -47 78 -87 81 -90 3 -3 43 -48 89 -100 47 -52
87 -97 90 -100 7 -6 312 -348 360 -404 19 -22 49 -55 65 -72 17 -17 52 -57 80
-89 27 -32 63 -73 80 -90 138 -144 222 -259 248 -340 31 -96 34 -129 24 -230
-23 -219 -105 -327 -282 -370 -73 -18 -222 -25 -290 -13 -101 18 -221 74 -283
132 -65 60 -85 121 -87 262 -1 82 -5 107 -22 135 -39 67 -51 69 -428 69 -349
0 -356 -1 -404 -44 -35 -32 -43 -62 -41 -161 6 -404 109 -703 323 -932 173
-186 422 -308 719 -353 110 -16 181 -18 648 -16 383 2 537 6 570 15 25 7 56
15 69 17 145 28 398 161 531 280 292 260 458 563 488 889 8 92 8 575 -1 645
-37 312 -191 598 -492 914 -11 12 -49 55 -85 96 -36 41 -67 77 -70 80 -8 7
-290 323 -327 366 -10 12 -50 57 -89 100 -39 43 -91 102 -115 129 -24 28 -58
66 -76 85 -17 19 -40 44 -50 56 -10 12 -47 54 -83 94 -36 40 -73 82 -82 92 -9
11 -46 52 -81 92 -140 156 -171 193 -207 247 -53 82 -75 157 -75 259 1 229 83
371 246 425 186 62 381 51 499 -27 96 -63 173 -224 196 -408 6 -47 33 -90 74
-117 33 -23 37 -23 372 -23 294 0 343 2 371 16 32 17 74 63 69 76 -1 5 2 8 6
8 9 0 7 107 -2 190 -14 116 -19 143 -47 256 -63 261 -168 455 -335 621 -93 92
-163 142 -279 200 -132 67 -223 95 -415 129 -56 10 -1070 13 -1125 3z"/>
<path d="M5049 5996 c-2 -2 -27 -6 -55 -10 -82 -9 -222 -53 -319 -100 -118
-56 -229 -140 -355 -268 -173 -173 -269 -320 -329 -504 -28 -87 -37 -129 -50
-249 -9 -84 -6 -3215 3 -3295 21 -181 104 -389 214 -536 105 -139 279 -304
409 -388 124 -80 284 -141 423 -163 68 -10 1600 -11 1692 0 164 18 327 72 462
151 81 48 255 211 326 305 146 193 237 495 245 811 l1 75 -44 42 -45 43 -346
0 -347 0 -41 -42 c-33 -35 -43 -54 -53 -103 -15 -82 -46 -179 -75 -235 -32
-64 -76 -105 -141 -135 -104 -48 -154 -53 -498 -54 -354 -1 -385 3 -505 62
-106 53 -166 126 -214 262 l-22 60 -3 1475 c-2 1044 0 1494 8 1540 16 90 69
200 122 252 25 24 74 57 109 75 120 60 148 63 519 60 184 -2 344 -6 355 -9 11
-3 34 -10 50 -14 49 -12 130 -52 157 -77 56 -52 107 -170 134 -307 13 -65 20
-80 56 -117 l42 -43 346 0 345 0 31 28 c53 46 61 69 58 156 -3 84 -9 144 -24
241 -27 166 -75 313 -142 434 -97 173 -297 370 -461 452 -60 31 -210 84 -262
93 -16 3 -52 11 -80 17 -36 9 -287 13 -871 16 -451 2 -822 2 -825 -1z"/>
</g>
</svg>
